<svg t="1682218412764" class="icon" viewBox="0 0 1024 1024" version="1.1" xmlns="http://www.w3.org/2000/svg" p-id="3487" width="200" height="200"><path d="M256 802.133333a34.133333 34.133333 0 0 1-24.132267-58.2656l128-128 527.36-527.36a34.133333 34.133333 0 1 1 48.264534 48.264534l-655.36 655.36A33.962667 33.962667 0 0 1 256 802.133333z" p-id="3488" fill="#cdcdcd"></path><path d="M682.666667 955.733333a17.032533 17.032533 0 0 1-12.066134-5.000533l-597.333333-597.333333a17.066667 17.066667 0 0 1 7.168-28.416l853.333333-256a17.032533 17.032533 0 0 1 21.248 21.248l-256 853.333333A17.1008 17.1008 0 0 1 682.666667 955.733333zM117.6064 349.474133L674.525867 906.410667 913.220267 110.7968 117.6064 349.474133z" p-id="3489" fill="#cdcdcd"></path></svg>